<svg xmlns="http://www.w3.org/2000/svg" viewBox="0 0 102 32" width="102" height="32">
  <path fill="#FF5A5F" d="M29.24 22.68c-.16-.39-.31-.8-.47-1.15l-.74-1.67-.03-.03c-2.2-4.8-4.55-9.68-7.04-14.48l-.1-.2c-.25-.47-.5-.99-.76-1.47-.32-.57-.63-1.18-1.14-1.76-.9-1.05-2.19-1.65-3.56-1.65-1.34 0-2.61.57-3.54 1.57-.49.51-.84 1.1-1.13 1.72-.26.48-.55.99-.78 1.47l-.1.2c-2.49 4.8-4.84 9.68-7.03 14.47l-.04.04-.74 1.67c-.16.35-.32.76-.47 1.15-.33.84-.56 1.62-.56 2.4 0 1.31.56 2.56 1.52 3.44.96.88 2.24 1.38 3.56 1.38.32 0 .67-.03.99-.1.76-.14 1.47-.45 2.13-.95.83-.62 1.57-1.5 2.4-2.85 1.07-1.75 2.16-3.99 3.35-6.85 1.19 2.85 2.28 5.09 3.35 6.85.84 1.35 1.58 2.23 2.4 2.85.66.5 1.37.83 2.13.95.32.07.67.1.99.1 1.31 0 2.6-.5 3.56-1.38a4.7 4.7 0 001.52-3.43c.03-.79-.22-1.57-.55-2.4zm-13.78-6.5c-1.13 2.4-2.2 4.15-3.18 5.21-1.41 1.5-2.85 2.03-4.1 1.53-1.26-.47-1.57-1.74-1.57-2.6 0-.52.13-1.07.38-1.63l.04-.07c.26-.53.5-1.07.78-1.6.84-1.67 1.69-3.34 2.56-5.01l.03-.06c.87-1.67 1.73-3.34 2.6-5.01l.09-.17c.25-.5.5-.99.79-1.47.27-.47.54-.9.88-1.24.47-.46 1.01-.7 1.63-.7s1.16.24 1.63.7c.34.33.61.77.89 1.24.26.47.5.97.78 1.47l.1.17c.86 1.67 1.72 3.34 2.56 5.01l.03.06c.87 1.67 1.73 3.34 2.56 5.01.28.53.53 1.1.79 1.63l.07.17c.26.56.41 1.12.41 1.65 0 .87-.37 2.13-1.6 2.6-1.23.5-2.66-.03-4.1-1.53-.97-1.1-2.04-2.88-3.18-5.25z"/>
  <path fill="currentColor" d="M48.39 16.53c-.52-.27-1.1-.45-1.69-.54a8.77 8.77 0 00-1.9-.1c-.74.03-1.44.17-2.1.4-.66.24-1.27.58-1.8 1.02-.53.44-.96 1-1.26 1.67-.3.64-.45 1.4-.45 2.28 0 .82.13 1.54.41 2.18.28.6.67 1.13 1.16 1.54.5.4 1.07.73 1.73.95.65.23 1.34.34 2.09.34.7 0 1.37-.1 2.03-.3.65-.2 1.24-.5 1.78-.93v1c0 1.37-.37 2.4-1.1 3.1-.74.7-1.77 1.05-3.1 1.05-.63 0-1.23-.06-1.82-.2a7.48 7.48 0 01-1.64-.54l-.52 1.87c.57.24 1.2.43 1.88.57.68.14 1.4.2 2.16.2 1.92 0 3.42-.5 4.5-1.52 1.08-1 1.62-2.52 1.62-4.52V12.7h-1.98v3.84zm0 5.92c-.44.52-1 .9-1.67 1.15-.67.26-1.43.38-2.27.38-.93 0-1.7-.27-2.34-.8-.63-.53-.95-1.34-.95-2.4 0-.56.1-1.05.3-1.45.2-.4.48-.74.84-1 .37-.27.8-.47 1.3-.6.5-.13 1.03-.2 1.6-.2.39 0 .77.03 1.13.1.37.05.72.14 1.05.25.34.1.63.23.9.37.26.13.48.26.64.4v3.8zM56.5 9.12h2.13V6.38H56.5v2.74zm0 17.18h2.13V12.7H56.5v13.6zM68.8 12.4c-.71 0-1.38.12-1.99.36-.6.24-1.14.57-1.62.99-.47.42-.85.93-1.13 1.53-.28.6-.42 1.26-.42 1.97 0 1.47.47 2.62 1.42 3.46.94.84 2.27 1.26 3.97 1.26 1.76 0 3.14-.42 4.13-1.26.99-.84 1.49-2 1.49-3.46 0-.7-.14-1.35-.42-1.97a4.44 4.44 0 00-1.14-1.53 5.19 5.19 0 00-1.64-1 5.46 5.46 0 00-2.02-.37h-.61zm2.99 5.91c-.5.53-1.2.8-2.08.8-.87 0-1.56-.27-2.06-.8-.5-.52-.75-1.23-.75-2.13 0-.9.25-1.6.75-2.14.5-.53 1.19-.8 2.06-.8.88 0 1.58.27 2.08.8.51.53.77 1.24.77 2.14 0 .9-.26 1.6-.77 2.13zM82.15 17.8c-.6-.58-1.42-.87-2.48-.87-.61 0-1.17.1-1.67.33-.51.22-.95.52-1.32.9-.38.38-.67.83-.88 1.36-.2.53-.31 1.1-.31 1.72 0 .64.1 1.22.31 1.76.21.53.51.99.88 1.37.38.38.83.68 1.35.89.52.2 1.09.31 1.72.31.56 0 1.08-.08 1.56-.25.48-.16.9-.38 1.27-.67v.75c0 .84-.22 1.47-.67 1.91-.45.43-1.08.65-1.89.65-.47 0-.91-.06-1.33-.18-.42-.12-.82-.29-1.2-.52l-.65 1.55c.47.26.98.47 1.54.6.56.15 1.15.22 1.78.22 1.28 0 2.28-.34 2.99-1.02.71-.68 1.07-1.7 1.07-3.05v-6.62h-2.07v.87zm0 4.44c-.27.28-.58.5-.94.67-.36.17-.74.25-1.16.25-.68 0-1.23-.2-1.65-.62-.42-.41-.63-.98-.63-1.72 0-.74.21-1.31.63-1.72.42-.4.97-.61 1.65-.61.42 0 .8.08 1.16.25.36.17.67.39.94.67v3.03zM94.86 12.4c-.72 0-1.39.12-2 .36-.6.24-1.14.57-1.62.99-.47.42-.85.93-1.13 1.53-.28.6-.42 1.26-.42 1.97 0 1.47.47 2.62 1.42 3.46.94.84 2.27 1.26 3.97 1.26 1.76 0 3.14-.42 4.13-1.26.99-.84 1.49-2 1.49-3.46 0-.7-.14-1.35-.42-1.97a4.44 4.44 0 00-1.14-1.53 5.19 5.19 0 00-1.64-1 5.46 5.46 0 00-2.02-.37h-.62zm2.99 5.91c-.5.53-1.2.8-2.08.8-.87 0-1.56-.27-2.06-.8-.5-.52-.75-1.23-.75-2.13 0-.9.25-1.6.75-2.14.5-.53 1.19-.8 2.06-.8.88 0 1.58.27 2.08.8.51.53.77 1.24.77 2.14 0 .9-.26 1.6-.77 2.13z"/>
</svg>
