<svg xmlns="http://www.w3.org/2000/svg" viewBox="0 0 100 30" width="100" height="30">
  <path fill="#FF9900" d="M89.25 16.12c-.57.75-1.47 1.18-2.56 1.18-1.47 0-2.53-1.03-2.53-2.62s1.06-2.62 2.53-2.62c1.1 0 1.99.43 2.56 1.18l1.34-1.16c-.88-1.12-2.27-1.78-3.9-1.78-2.64 0-4.47 1.78-4.47 4.38s1.82 4.38 4.47 4.38c1.63 0 3.02-.65 3.9-1.78l-1.34-1.16z"/>
  <path fill="currentColor" d="M10.58 3.66a4.8 4.8 0 0 0-1.16-.14c-1.95 0-3.1 1.4-3.1 3.66v.75H4.5v1.82h1.82v8.92h2.1V9.75h2.07V7.93H8.42V7.3c0-1.21.52-1.85 1.49-1.85.36 0 .65.07.94.21l.73-1.76-.26-.12c-.25-.08-.5-.12-.74-.12z"/>
  <path fill="currentColor" d="M19.03 7.66c-2.7 0-4.72 2.05-4.72 4.85s2.02 4.85 4.72 4.85 4.72-2.05 4.72-4.85-2.02-4.85-4.72-4.85zm0 7.88c-1.53 0-2.59-1.2-2.59-3.03s1.06-3.03 2.59-3.03 2.59 1.2 2.59 3.03-1.06 3.03-2.59 3.03z"/>
  <path fill="currentColor" d="M35.3 7.66c-1.26 0-2.3.55-2.96 1.61v-1.34h-2.1v10.74h2.1v-5.81c0-1.74.9-2.85 2.33-2.85 1.21 0 1.88.75 1.88 2.15v6.51h2.1v-6.93c0-2.5-1.36-4.08-3.35-4.08z"/>
  <path fill="currentColor" d="M50.41 12.51c0-2.8-1.76-4.85-4.4-4.85-2.73 0-4.65 2.08-4.65 4.85s1.92 4.85 4.82 4.85c1.72 0 3.13-.67 3.92-1.91l-1.55-1c-.52.78-1.34 1.18-2.37 1.18-1.47 0-2.5-.88-2.73-2.42h7.16c.03-.214.03-.427.03-.7h-.23zm-4.37-3.13c1.3 0 2.2.85 2.37 2.24h-4.98c.23-1.39 1.24-2.24 2.61-2.24z"/>
  <path fill="currentColor" d="M58.03 15.28l-2.01-7.35h-2.24l3.23 10.74h2.04l2.01-6.6 2.01 6.6h2.04l3.23-10.74h-2.24l-2.01 7.35-1.97-6.75h-2.12l-1.97 6.75z"/>
  <path fill="currentColor" d="M73.33 7.66c-2.7 0-4.72 2.05-4.72 4.85s2.02 4.85 4.72 4.85 4.72-2.05 4.72-4.85-2.02-4.85-4.72-4.85zm0 7.88c-1.53 0-2.59-1.2-2.59-3.03s1.06-3.03 2.59-3.03 2.59 1.2 2.59 3.03-1.06 3.03-2.59 3.03z"/>
  <path fill="#FF9900" d="M50.27 22.28c-5.52 4.1-13.52 6.28-20.41 6.28-9.66 0-18.36-3.57-24.94-9.51-.52-.47-.05-1.11.57-.75 7.1 4.13 15.88 6.62 24.94 6.62 6.12 0 12.85-1.27 19.03-3.89.93-.4 1.72.61.81 1.25z"/>
  <path fill="#FF9900" d="M52.57 19.65c-.7-.9-4.65-.43-6.43-.21-.54.06-.62-.4-.14-.75 3.15-2.21 8.32-1.57 8.92-.83.6.75-.16 5.94-3.11 8.41-.45.38-.88.18-.68-.32.66-1.65 2.14-5.37 1.44-6.3z"/>
</svg>
