<svg xmlns="http://www.w3.org/2000/svg" viewBox="0 0 284 62" width="120" height="26">
  <path fill="#0052FF" d="M142 31c0 17.1-13.9 31-31 31-17.1 0-31-13.9-31-31S93.9 0 111 0c17.1 0 31 13.9 31 31z"/>
  <path fill="#fff" d="M111 10.7c-11.2 0-20.3 9.1-20.3 20.3 0 11.2 9.1 20.3 20.3 20.3S131.3 42.2 131.3 31c0-11.2-9.1-20.3-20.3-20.3zm0 33.7c-7.4 0-13.4-6-13.4-13.4 0-7.4 6-13.4 13.4-13.4 7.4 0 13.4 6 13.4 13.4 0 7.4-6 13.4-13.4 13.4z"/>
  <path fill="currentColor" d="M0 31.1C0 13.9 13.5.4 30.7.4c11.4 0 21.3 6.2 26.6 15.3l-12 6.8C42.5 17.3 37 13.7 30.7 13.7c-9.6 0-17.4 7.8-17.4 17.4s7.8 17.4 17.4 17.4c6.3 0 11.8-3.6 14.6-8.8l12 6.8c-5.3 9.1-15.2 15.3-26.6 15.3C13.5 61.8 0 48.3 0 31.1z"/>
  <path fill="currentColor" d="M175.5 1.4h13.3V61h-13.3z"/>
  <path fill="currentColor" d="M225 .4c17.2 0 31.1 13.5 31.1 30.7S242.2 61.8 225 61.8 193.9 48.3 193.9 31.1 207.8.4 225 .4zm0 48c9.6 0 17.4-7.8 17.4-17.4s-7.8-17.4-17.4-17.4-17.4 7.8-17.4 17.4 7.8 17.4 17.4 17.4z"/>
  <path fill="currentColor" d="M284 1.4v59.5h-13.3V40.7h-5l-12.3 20.2h-15.2L253 37.2c-6.7-3.4-10.9-10-10.9-17.9 0-11 8.9-17.9 19.2-17.9H284zm-22.7 12.3h-8.6c-4.3 0-7.4 2.7-7.4 5.6 0 2.9 3.1 5.6 7.4 5.6h8.6V13.7z"/>
</svg>
