<svg xmlns="http://www.w3.org/2000/svg" viewBox="0 0 111 30" width="111" height="30">
  <path fill="#E50914" d="M105.062 14.28L111 30c-1.75-.25-3.499-.563-5.28-.845l-3.345-8.686-3.437 7.969c-1.687-.282-3.344-.376-5.031-.595l6.031-13.75L94.468 0h5.063l3.062 7.874L105.875 0h5.124l-5.937 14.28zM90.47 0h-4.594v27.25c1.5.094 3.062.156 4.594.343V0zm-8.563 26.937c-4.187-.281-8.375-.53-12.656-.625V0h4.687v21.875c2.688.062 5.375.28 7.969.405v4.657zM64.25 10.657v4.687h-6.406V26H53.22V0h13.125v4.687h-8.5v5.97h6.406zm-18.906-5.97V26.25c-1.563 0-3.156 0-4.688.062V4.687H35.97V0h13.937v4.687h-4.563zM25.156 0v4.687h-6.406v8.282h6.406v4.687h-6.406v.311l6.406.063v4.657c-3.75.312-7.5.688-11.25 1.156V0h11.25zm-13.5 27.094L6.282 21.53c-.063.063-5.937-1.062-5.937-8.468S5.343 4.593 5.343 4.593l5.313-3.531 2.125 2.53-5.5 3.407S4.843 8.343 4.843 13c0 4.656 2.532 5.937 2.532 5.937l4.281-7.25 2.437 1.406-4.406 7.438 4.469 3.406-2.5 3.157z"/>
</svg>
