<svg xmlns="http://www.w3.org/2000/svg" viewBox="0 0 24 24" width="36" height="36" fill="currentColor">
  <path d="M12.514 5.57L12 4.5l-.514 1.07-1.236.133 1.236.133.514 1.07.514-1.07 1.236-.133-1.236-.133-.514-1.07zM12 8.5c-1.93 0-3.5 1.57-3.5 3.5s1.57 3.5 3.5 3.5 3.5-1.57 3.5-3.5-1.57-3.5-3.5-3.5zm0 5.5c-1.103 0-2-.897-2-2s.897-2 2-2 2 .897 2 2-.897 2-2 2z"/>
  <path d="M18.156 10.594L21 12l-2.844 1.406-.75 3.094-2.25-2.156-3.156.656-.656-3.156 2.156-2.25-.75-3.094 3.094.75L18.156 5l1.406 2.844L22.5 6.5l-1.344 3.094 1.344 3.094-2.938-1.344-1.406 2.844-1.406-2.844L13.5 12l3.25.406.406 3.094 2.156-2.156 3.094.75-.75-3.094"/>
  <path d="M2 12c0 5.523 4.477 10 10 10s10-4.477 10-10S17.523 2 12 2 2 6.477 2 12zm18 0c0 4.411-3.589 8-8 8s-8-3.589-8-8 3.589-8 8-8 8 3.589 8 8z"/>
</svg>
